<svg width="33" height="32" viewBox="0 0 33 32" fill="none" xmlns="http://www.w3.org/2000/svg">
<rect width="33" height="32" fill="#898989"/>
<g id="Rotations" clip-path="url(#clip0_1589_17200)">
<rect width="390" height="961" transform="translate(-54 -254)" fill="white"/>
<g id="Group 1000004144">
</g>
<g id="Group 1000004135">
<g id="Group 34559">
<circle id="Ellipse 2" cx="16.595" cy="15.595" r="33.595" fill="#FAF0CC"/>
<g id="Property 1=bold">
<g id="vuesax/bold/personalcard">
<g id="personalcard">
<path id="Vector" d="M24.5802 4H8.58016C5.63349 4 3.24683 6.37333 3.24683 9.29333V22.7067C3.24683 25.6267 5.63349 28 8.58016 28H24.5802C27.5268 28 29.9135 25.6267 29.9135 22.7067V9.29333C29.9135 6.37333 27.5268 4 24.5802 4ZM11.9135 9.56C13.6068 9.56 14.9935 10.9467 14.9935 12.64C14.9935 14.3333 13.6068 15.72 11.9135 15.72C10.2202 15.72 8.83349 14.3333 8.83349 12.64C8.83349 10.9467 10.2202 9.56 11.9135 9.56ZM17.0735 22.2133C16.9535 22.3467 16.7668 22.4267 16.5802 22.4267H7.24683C7.06016 22.4267 6.87349 22.3467 6.75349 22.2133C6.63349 22.08 6.56683 21.8933 6.58016 21.7067C6.80683 19.4667 8.59349 17.6933 10.8335 17.48C11.5402 17.4133 12.2735 17.4133 12.9802 17.48C15.2202 17.6933 17.0202 19.4667 17.2335 21.7067C17.2602 21.8933 17.1935 22.08 17.0735 22.2133ZM25.9135 22.3333H23.2468C22.7002 22.3333 22.2468 21.88 22.2468 21.3333C22.2468 20.7867 22.7002 20.3333 23.2468 20.3333H25.9135C26.4602 20.3333 26.9135 20.7867 26.9135 21.3333C26.9135 21.88 26.4602 22.3333 25.9135 22.3333ZM25.9135 17H20.5802C20.0335 17 19.5802 16.5467 19.5802 16C19.5802 15.4533 20.0335 15 20.5802 15H25.9135C26.4602 15 26.9135 15.4533 26.9135 16C26.9135 16.5467 26.4602 17 25.9135 17ZM25.9135 11.6667H19.2468C18.7002 11.6667 18.2468 11.2133 18.2468 10.6667C18.2468 10.12 18.7002 9.66667 19.2468 9.66667H25.9135C26.4602 9.66667 26.9135 10.12 26.9135 10.6667C26.9135 11.2133 26.4602 11.6667 25.9135 11.6667Z" fill="#C67429"/>
</g>
</g>
</g>
</g>
</g>
</g>
<defs>
<clipPath id="clip0_1589_17200">
<rect width="390" height="961" fill="white" transform="translate(-54 -254)"/>
</clipPath>
</defs>
</svg>
