<svg width="40" height="40" viewBox="0 0 40 40" fill="none" xmlns="http://www.w3.org/2000/svg">
<path d="M0 10C0 4.47715 4.47715 0 10 0H40V30C40 35.5228 35.5228 40 30 40H0V10Z" fill="#FAFAFA"/>
<path d="M29.161 22.7505V17.2505C29.161 15.7288 27.9326 14.5005 26.411 14.5005H13.5776C12.056 14.5005 10.8276 15.7288 10.8276 17.2505V22.7505C10.8276 24.2722 12.056 25.5005 13.5776 25.5005H26.411C27.9326 25.5005 29.161 24.2722 29.161 22.7505Z" fill="#FF746A"/>
<path d="M14.4307 26.875H25.559C25.8523 26.875 26.0632 27.1408 26.0082 27.425C25.7607 28.7817 24.9632 29.1667 23.0473 29.1667H16.9423C15.0173 29.1667 14.229 28.7817 13.9815 27.425C13.9265 27.1408 14.1373 26.875 14.4307 26.875Z" fill="#FF746A"/>
<path d="M16.9423 10.833H23.0473C24.9723 10.833 25.7607 11.218 26.0082 12.5747C26.0632 12.8588 25.8432 13.1247 25.559 13.1247H14.4307C14.1373 13.1247 13.9265 12.8588 13.9815 12.5747C14.229 11.218 15.0173 10.833 16.9423 10.833Z" fill="#FF746A"/>
</svg>
