<svg width="26" height="26" viewBox="0 0 26 26" fill="none" xmlns="http://www.w3.org/2000/svg">
<g id="Group 1000004185">
<circle id="Ellipse 416" cx="13" cy="13" r="13" fill="#D9D9D9"/>
<g id="Group 1000004184">
<path id="Fill 1" fill-rule="evenodd" clip-rule="evenodd" d="M9.19399 17.9954C8.88907 17.9954 8.58415 17.8794 8.35229 17.646C7.88697 17.1806 7.88697 16.4279 8.35229 15.9626L15.9626 8.35229C16.4279 7.88697 17.1806 7.88697 17.646 8.35229C18.1113 8.8176 18.1113 9.57037 17.646 10.0357L10.0357 17.646C9.80383 17.8794 9.49891 17.9954 9.19399 17.9954Z" fill="black"/>
<path id="Fill 3" fill-rule="evenodd" clip-rule="evenodd" d="M16.8073 18C16.5024 18 16.1975 17.8841 15.9656 17.6506L8.34899 10.0324C7.88367 9.56708 7.88367 8.81431 8.34899 8.34899C8.8159 7.88367 9.56867 7.88367 10.0324 8.34899L17.649 15.9672C18.1143 16.4325 18.1143 17.1853 17.649 17.6506C17.4172 17.8841 17.1107 18 16.8073 18Z" fill="black"/>
</g>
</g>
</svg>
