<svg width="35" height="35" viewBox="0 0 35 35" fill="none" xmlns="http://www.w3.org/2000/svg">
<g id="Group 34632">
<g id="Group 34633">
<g id="Group 34634">
<g id="Group 34635">
<g id="Group 34636">
<g id="Group 34641">
<g id="Group 34722">
<rect id="Rectangle 24" x="0.322266" y="0.352539" width="33.6949" height="33.6953" rx="16.8474" fill="#EE2F1E"/>
<g id="Group 1000003536">
<path id="Vector" d="M19.1952 11.5786H15.1444C14.864 11.5786 14.6398 11.3543 14.6398 11.074C14.6398 10.7937 14.864 10.5624 15.1444 10.5624H19.1952C19.4755 10.5624 19.6998 10.7866 19.6998 11.067C19.6998 11.3473 19.4755 11.5786 19.1952 11.5786Z" fill="white"/>
<path id="Vector_2" d="M21.5159 19.3831C19.9671 19.3831 18.7126 20.6375 18.7126 22.1864C18.7126 23.7352 19.9671 24.9897 21.5159 24.9897C23.0648 24.9897 24.3193 23.7352 24.3193 22.1864C24.3193 20.6375 23.0648 19.3831 21.5159 19.3831ZM22.6373 23.3358C22.5321 23.4409 22.399 23.4899 22.2658 23.4899C22.1327 23.4899 21.9995 23.4409 21.8944 23.3358L21.5229 22.9643L21.1375 23.3498C21.0323 23.4549 20.8992 23.504 20.766 23.504C20.6329 23.504 20.4997 23.4549 20.3946 23.3498C20.1913 23.1465 20.1913 22.8101 20.3946 22.6069L20.78 22.2214L20.4086 21.85C20.2054 21.6467 20.2054 21.3103 20.4086 21.1071C20.6118 20.9039 20.9482 20.9039 21.1515 21.1071L21.5229 21.4856L21.8733 21.1351C22.0766 20.9319 22.413 20.9319 22.6162 21.1351C22.8195 21.3384 22.8195 21.6748 22.6162 21.878L22.2658 22.2284L22.6373 22.5999C22.8405 22.8031 22.8405 23.1325 22.6373 23.3358Z" fill="white"/>
<path id="Subtract" fill-rule="evenodd" clip-rule="evenodd" d="M18.7304 24.368C18.2206 23.7482 17.9145 22.9546 17.9145 22.0895C17.9145 20.1073 19.5214 18.5004 21.5036 18.5004C22.1272 18.5004 22.7136 18.6595 23.2246 18.9392C23.2362 18.7961 23.2463 18.6523 23.2463 18.5034C23.2463 15.1464 20.5201 12.4202 17.1701 12.4202C13.8201 12.4202 11.0939 15.1464 11.0939 18.5034C11.0939 21.8534 13.8201 24.5796 17.1701 24.5796C17.7116 24.5796 18.23 24.4985 18.7304 24.368ZM17.1701 18.7977C17.4574 18.7977 17.6957 18.5595 17.6957 18.2721V14.768C17.6957 14.4806 17.4574 14.2423 17.1701 14.2423C16.8828 14.2423 16.6445 14.4806 16.6445 14.768V18.2721C16.6445 18.5595 16.8828 18.7977 17.1701 18.7977Z" fill="white"/>
</g>
</g>
</g>
</g>
</g>
</g>
</g>
</g>
</svg>
