<svg width="43" height="43" viewBox="0 0 43 43" fill="none" xmlns="http://www.w3.org/2000/svg">
<g filter="url(#filter0_d_1600_16193)">
<rect x="4.97766" y="0.90625" width="33.7141" height="33.7141" rx="16.8571" fill="#01A750"/>
<path d="M21.1324 10.7407H19.7277C16.216 10.7407 14.8113 12.1454 14.8113 15.6571V19.8712C14.8113 23.3829 16.216 24.7876 19.7277 24.7876H23.9417C27.4534 24.7876 28.8581 23.3829 28.8581 19.8712V18.4665" stroke="white" stroke-width="1.05351" stroke-linecap="round" stroke-linejoin="round"/>
<path d="M24.6722 11.4568L19.1377 16.9913C18.927 17.202 18.7163 17.6163 18.6742 17.9183L18.3721 20.0324C18.2598 20.7979 18.8006 21.3317 19.5661 21.2264L21.6802 20.9244C21.9752 20.8822 22.3895 20.6715 22.6073 20.4608L28.1417 14.9264C29.0969 13.9712 29.5464 12.8615 28.1417 11.4568C26.737 10.0521 25.6273 10.5016 24.6722 11.4568Z" stroke="white" stroke-width="1.05351" stroke-miterlimit="10" stroke-linecap="round" stroke-linejoin="round"/>
<path d="M23.8785 12.2505C24.3491 13.9291 25.6625 15.2425 27.3481 15.7201" stroke="white" stroke-width="1.05351" stroke-miterlimit="10" stroke-linecap="round" stroke-linejoin="round"/>
</g>
<defs>
<filter id="filter0_d_1600_16193" x="0.977661" y="0.90625" width="41.7141" height="41.7139" filterUnits="userSpaceOnUse" color-interpolation-filters="sRGB">
<feFlood flood-opacity="0" result="BackgroundImageFix"/>
<feColorMatrix in="SourceAlpha" type="matrix" values="0 0 0 0 0 0 0 0 0 0 0 0 0 0 0 0 0 0 127 0" result="hardAlpha"/>
<feOffset dy="4"/>
<feGaussianBlur stdDeviation="2"/>
<feComposite in2="hardAlpha" operator="out"/>
<feColorMatrix type="matrix" values="0 0 0 0 0.00392157 0 0 0 0 0.654902 0 0 0 0 0.313726 0 0 0 0.25 0"/>
<feBlend mode="normal" in2="BackgroundImageFix" result="effect1_dropShadow_1600_16193"/>
<feBlend mode="normal" in="SourceGraphic" in2="effect1_dropShadow_1600_16193" result="shape"/>
</filter>
</defs>
</svg>
