<svg width="68" height="68" viewBox="0 0 68 68" fill="none" xmlns="http://www.w3.org/2000/svg">
<circle cx="33.595" cy="33.595" r="33.595" fill="#FAF0CC"/>
<path d="M41.5802 22H25.5802C22.6335 22 20.2468 24.3733 20.2468 27.2933V40.7067C20.2468 43.6267 22.6335 46 25.5802 46H41.5802C44.5268 46 46.9135 43.6267 46.9135 40.7067V27.2933C46.9135 24.3733 44.5268 22 41.5802 22ZM28.9135 27.56C30.6068 27.56 31.9935 28.9467 31.9935 30.64C31.9935 32.3333 30.6068 33.72 28.9135 33.72C27.2202 33.72 25.8335 32.3333 25.8335 30.64C25.8335 28.9467 27.2202 27.56 28.9135 27.56ZM34.0735 40.2133C33.9535 40.3467 33.7668 40.4267 33.5802 40.4267H24.2468C24.0602 40.4267 23.8735 40.3467 23.7535 40.2133C23.6335 40.08 23.5668 39.8933 23.5802 39.7067C23.8068 37.4667 25.5935 35.6933 27.8335 35.48C28.5402 35.4133 29.2735 35.4133 29.9802 35.48C32.2202 35.6933 34.0202 37.4667 34.2335 39.7067C34.2602 39.8933 34.1935 40.08 34.0735 40.2133ZM42.9135 40.3333H40.2468C39.7002 40.3333 39.2468 39.88 39.2468 39.3333C39.2468 38.7867 39.7002 38.3333 40.2468 38.3333H42.9135C43.4602 38.3333 43.9135 38.7867 43.9135 39.3333C43.9135 39.88 43.4602 40.3333 42.9135 40.3333ZM42.9135 35H37.5802C37.0335 35 36.5802 34.5467 36.5802 34C36.5802 33.4533 37.0335 33 37.5802 33H42.9135C43.4602 33 43.9135 33.4533 43.9135 34C43.9135 34.5467 43.4602 35 42.9135 35ZM42.9135 29.6667H36.2468C35.7002 29.6667 35.2468 29.2133 35.2468 28.6667C35.2468 28.12 35.7002 27.6667 36.2468 27.6667H42.9135C43.4602 27.6667 43.9135 28.12 43.9135 28.6667C43.9135 29.2133 43.4602 29.6667 42.9135 29.6667Z" fill="#C67429"/>
</svg>
