<svg width="68" height="68" viewBox="0 0 68 68" fill="none" xmlns="http://www.w3.org/2000/svg">
<circle cx="34.1053" cy="33.595" r="33.595" fill="#17D9C2" fill-opacity="0.1"/>
<path d="M35.5764 25.8181H25.2031C22.9231 25.8181 21.0564 27.6848 21.0564 29.9648V45.1115C21.0564 47.0448 22.4431 47.8714 24.1364 46.9248L29.3764 44.0048C29.9364 43.6981 30.8431 43.6981 31.3897 44.0048L36.6297 46.9248C38.3364 47.8581 39.7231 47.0448 39.7231 45.1115V29.9648C39.7231 27.6848 37.8564 25.8181 35.5764 25.8181Z" fill="#17D9C2"/>
<path d="M47.7229 24.7914V39.9381C47.7229 41.8714 46.3363 42.6848 44.6429 41.7514L42.0696 40.3114C41.8563 40.1914 41.7229 39.9648 41.7229 39.7248V29.9648C41.7229 26.5781 38.9629 23.8181 35.5763 23.8181H30.1496C29.6563 23.8181 29.3096 23.2981 29.5363 22.8714C30.2296 21.5514 31.6163 20.6448 33.2029 20.6448H43.5763C45.8563 20.6448 47.7229 22.5114 47.7229 24.7914Z" fill="#17D9C2"/>
</svg>
