<svg width="68" height="68" viewBox="0 0 68 68" fill="none" xmlns="http://www.w3.org/2000/svg">
<circle cx="34.0152" cy="33.7027" r="33.595" fill="#41AEA8" fill-opacity="0.1"/>
<path d="M40.3333 21.9809V19.9009C40.3333 19.3542 39.88 18.9009 39.3333 18.9009C38.7866 18.9009 38.3333 19.3542 38.3333 19.9009V21.9009H29.6666V19.9009C29.6666 19.3542 29.2133 18.9009 28.6666 18.9009C28.12 18.9009 27.6666 19.3542 27.6666 19.9009V21.9809C24.0666 22.3142 22.32 24.4609 22.0533 27.6475C22.0266 28.0342 22.3466 28.3542 22.72 28.3542H45.28C45.6666 28.3542 45.9866 28.0209 45.9466 27.6475C45.68 24.4609 43.9333 22.3142 40.3333 21.9809Z" fill="#41AEA8"/>
<path d="M44.6667 30.3542H23.3333C22.6 30.3542 22 30.9542 22 31.6876V39.9009C22 43.9009 24 46.5676 28.6667 46.5676H39.3333C44 46.5676 46 43.9009 46 39.9009V31.6876C46 30.9542 45.4 30.3542 44.6667 30.3542ZM30.28 41.5142C30.1467 41.6342 30 41.7276 29.84 41.7942C29.68 41.8609 29.5067 41.9009 29.3333 41.9009C29.16 41.9009 28.9867 41.8609 28.8267 41.7942C28.6667 41.7276 28.52 41.6342 28.3867 41.5142C28.1467 41.2609 28 40.9142 28 40.5676C28 40.2209 28.1467 39.8742 28.3867 39.6209C28.52 39.5009 28.6667 39.4076 28.8267 39.3409C29.1467 39.2076 29.52 39.2076 29.84 39.3409C30 39.4076 30.1467 39.5009 30.28 39.6209C30.52 39.8742 30.6667 40.2209 30.6667 40.5676C30.6667 40.9142 30.52 41.2609 30.28 41.5142ZM30.56 36.4076C30.4933 36.5676 30.4 36.7142 30.28 36.8476C30.1467 36.9676 30 37.0609 29.84 37.1276C29.68 37.1942 29.5067 37.2342 29.3333 37.2342C29.16 37.2342 28.9867 37.1942 28.8267 37.1276C28.6667 37.0609 28.52 36.9676 28.3867 36.8476C28.2667 36.7142 28.1733 36.5676 28.1067 36.4076C28.04 36.2476 28 36.0742 28 35.9009C28 35.7276 28.04 35.5542 28.1067 35.3942C28.1733 35.2342 28.2667 35.0876 28.3867 34.9542C28.52 34.8342 28.6667 34.7409 28.8267 34.6742C29.1467 34.5409 29.52 34.5409 29.84 34.6742C30 34.7409 30.1467 34.8342 30.28 34.9542C30.4 35.0876 30.4933 35.2342 30.56 35.3942C30.6267 35.5542 30.6667 35.7276 30.6667 35.9009C30.6667 36.0742 30.6267 36.2476 30.56 36.4076ZM34.9467 36.8476C34.8133 36.9676 34.6667 37.0609 34.5067 37.1276C34.3467 37.1942 34.1733 37.2342 34 37.2342C33.8267 37.2342 33.6533 37.1942 33.4933 37.1276C33.3333 37.0609 33.1867 36.9676 33.0533 36.8476C32.8133 36.5942 32.6667 36.2476 32.6667 35.9009C32.6667 35.5542 32.8133 35.2076 33.0533 34.9542C33.1867 34.8342 33.3333 34.7409 33.4933 34.6742C33.8133 34.5276 34.1867 34.5276 34.5067 34.6742C34.6667 34.7409 34.8133 34.8342 34.9467 34.9542C35.1867 35.2076 35.3333 35.5542 35.3333 35.9009C35.3333 36.2476 35.1867 36.5942 34.9467 36.8476Z" fill="#41AEA8"/>
</svg>
