<svg width="68" height="68" viewBox="0 0 68 68" fill="none" xmlns="http://www.w3.org/2000/svg">
<circle cx="34" cy="33.595" r="33.595" fill="#9A81ED" fill-opacity="0.1"/>
<path d="M33.9852 19.9006C30.4919 19.9006 27.6519 22.7406 27.6519 26.234C27.6519 29.6606 30.3319 32.434 33.8252 32.554C33.9319 32.5406 34.0385 32.5406 34.1185 32.554C34.1452 32.554 34.1585 32.554 34.1852 32.554C34.1985 32.554 34.1985 32.554 34.2119 32.554C37.6252 32.434 40.3052 29.6606 40.3185 26.234C40.3185 22.7406 37.4785 19.9006 33.9852 19.9006Z" fill="#9A81ED"/>
<path d="M40.7584 36.114C37.0384 33.634 30.9717 33.634 27.2251 36.114C25.5317 37.234 24.5984 38.7674 24.5984 40.4074C24.5984 42.0474 25.5317 43.5674 27.2117 44.6874C29.0784 45.9407 31.5317 46.5674 33.9851 46.5674C36.4384 46.5674 38.8917 45.9407 40.7584 44.6874C42.4384 43.554 43.3717 42.034 43.3717 40.3807C43.3584 38.754 42.4384 37.2207 40.7584 36.114ZM37.0917 39.314L33.7317 42.674C33.5717 42.834 33.3584 42.914 33.1451 42.914C32.9317 42.914 32.7184 42.8207 32.5584 42.674L30.8784 40.994C30.5584 40.674 30.5584 40.1407 30.8784 39.8207C31.1984 39.5007 31.7317 39.5007 32.0517 39.8207L33.1451 40.914L35.9184 38.1407C36.2384 37.8207 36.7717 37.8207 37.0917 38.1407C37.4251 38.4607 37.4251 38.994 37.0917 39.314Z" fill="#9A81ED"/>
</svg>
