<svg width="69" height="68" viewBox="0 0 69 68" fill="none" xmlns="http://www.w3.org/2000/svg">
<circle cx="34.5" cy="33.595" r="33.595" fill="#F5F2FD"/>
<path d="M40.0228 30.9038H29.3561C28.4361 30.9038 27.6895 31.6505 27.6895 32.5705V33.9705C27.7295 33.9571 27.7561 33.9438 27.7961 33.9305C27.9561 33.8505 28.1295 33.7971 28.3028 33.7438C28.3828 33.7171 28.4628 33.6905 28.5561 33.6638C28.8228 33.6105 29.0895 33.5705 29.3695 33.5705H40.0361C40.3161 33.5705 40.5828 33.6105 40.8495 33.6638C40.9295 33.6771 41.0095 33.7171 41.1028 33.7438C41.2761 33.7971 41.4495 33.8505 41.6095 33.9305C41.6495 33.9438 41.6895 33.9571 41.7161 33.9705V32.5705C41.6895 31.6505 40.9428 30.9038 40.0228 30.9038Z" fill="#9A81ED"/>
<path d="M40.0228 35.5706H29.3561C28.4361 35.5706 27.6895 36.3172 27.6895 37.2372V37.9039H31.3561C31.9028 37.9039 32.3561 38.3572 32.3561 38.9039C32.3561 40.1839 33.4095 41.2372 34.6895 41.2372C35.9695 41.2372 37.0228 40.1839 37.0228 38.9039C37.0228 38.3572 37.4761 37.9039 38.0228 37.9039H41.6895V37.2372C41.6895 36.3172 40.9428 35.5706 40.0228 35.5706Z" fill="#9A81ED"/>
<path d="M40.0228 26.5706H29.3561C28.4361 26.5706 27.6895 27.3172 27.6895 28.2372V29.3172C28.1961 29.0639 28.7561 28.9039 29.3561 28.9039H40.0228C40.6228 28.9039 41.1828 29.0639 41.6895 29.3172V28.2372C41.6895 27.3172 40.9428 26.5706 40.0228 26.5706Z" fill="#9A81ED"/>
<path d="M40.2762 20.5706H29.1029C24.2495 20.5706 21.3562 23.4639 21.3562 28.3172V39.4772C21.3562 44.3439 24.2495 47.2372 29.1029 47.2372H40.2629C45.1162 47.2372 48.0095 44.3439 48.0095 39.4906V28.3172C48.0229 23.4639 45.1295 20.5706 40.2762 20.5706ZM44.0229 39.9039H42.6895H38.9029C38.4495 41.8106 36.7295 43.2372 34.6895 43.2372C32.6495 43.2372 30.9295 41.8106 30.4762 39.9039H26.6895H25.3562C24.8095 39.9039 24.3562 39.4506 24.3562 38.9039C24.3562 38.3572 24.8095 37.9039 25.3562 37.9039H25.6895V37.2372V36.5706V32.5706V28.2372C25.6895 26.2106 27.3295 24.5706 29.3562 24.5706H40.0229C42.0495 24.5706 43.6895 26.2106 43.6895 28.2372V32.5706V36.5706V37.2372V37.9039H44.0229C44.5695 37.9039 45.0229 38.3572 45.0229 38.9039C45.0229 39.4506 44.5695 39.9039 44.0229 39.9039Z" fill="#9A81ED"/>
</svg>
