<svg width="68" height="68" viewBox="0 0 68 68" fill="none" xmlns="http://www.w3.org/2000/svg">
<circle cx="33.7159" cy="33.7027" r="33.595" fill="#EEF5FF"/>
<path d="M45.9335 22.7407L23.5068 45.1674C24.7735 46.0874 26.4268 46.5674 28.4135 46.5674H39.5868C44.4402 46.5674 47.3335 43.6741 47.3335 38.8207V27.6474C47.3335 25.6607 46.8535 24.0074 45.9335 22.7407ZM42.6668 38.9007H40.4135V41.2341C40.4135 41.7807 39.9602 42.2341 39.4135 42.2341C38.8668 42.2341 38.4135 41.7807 38.4135 41.2341V38.9007H36.0002C35.4535 38.9007 35.0002 38.4474 35.0002 37.9007C35.0002 37.3541 35.4535 36.9007 36.0002 36.9007H38.4135V34.5674C38.4135 34.0207 38.8668 33.5674 39.4135 33.5674C39.9602 33.5674 40.4135 34.0207 40.4135 34.5674V36.9007H42.6668C43.2135 36.9007 43.6668 37.3541 43.6668 37.9007C43.6668 38.4474 43.2135 38.9007 42.6668 38.9007Z" fill="#519CFF"/>
<path d="M39.587 19.9009H28.4137C23.5603 19.9009 20.667 22.7942 20.667 27.6475V38.8209C20.667 40.8075 21.147 42.4609 22.067 43.7275L44.4937 21.3009C43.227 20.3809 41.5737 19.9009 39.587 19.9009ZM32.0003 28.2342H25.3337C24.787 28.2342 24.3337 27.7809 24.3337 27.2342C24.3337 26.6875 24.787 26.2342 25.3337 26.2342H32.0003C32.547 26.2342 33.0003 26.6875 33.0003 27.2342C33.0003 27.7809 32.547 28.2342 32.0003 28.2342Z" fill="#519CFF"/>
</svg>
