<svg width="68" height="68" viewBox="0 0 68 68" fill="none" xmlns="http://www.w3.org/2000/svg">
<g id="Group 34559">
<circle id="Ellipse 2" cx="33.595" cy="33.595" r="33.595" fill="#FFF1F0"/>
<g id="vuesax/bold/slider-vertical">
<g id="slider-vertical">
<path id="Vector" d="M46 38.251V30.751C46 28.676 44.325 27.001 42.25 27.001H24.75C22.675 27.001 21 28.676 21 30.751V38.251C21 40.326 22.675 42.001 24.75 42.001H42.25C44.325 42.001 46 40.326 46 38.251Z" fill="#FF746A"/>
<path id="Vector_2" d="M25.913 43.876H41.088C41.488 43.876 41.7755 44.2385 41.7005 44.626C41.363 46.476 40.2755 47.001 37.663 47.001H29.338C26.713 47.001 25.638 46.476 25.3005 44.626C25.2255 44.2385 25.513 43.876 25.913 43.876Z" fill="#FF746A"/>
<path id="Vector_3" d="M29.338 22H37.663C40.288 22 41.363 22.525 41.7005 24.375C41.7755 24.7625 41.4755 25.125 41.088 25.125H25.913C25.513 25.125 25.2255 24.7625 25.3005 24.375C25.638 22.525 26.713 22 29.338 22Z" fill="#FF746A"/>
</g>
</g>
</g>
</svg>
