<svg width="68" height="68" viewBox="0 0 68 68" fill="none" xmlns="http://www.w3.org/2000/svg">
<circle cx="34.1053" cy="33.595" r="33.595" fill="#0FC766" fill-opacity="0.1"/>
<path d="M39.4562 20.1807C38.9096 19.634 37.9629 20.0074 37.9629 20.7674V25.4207C37.9629 27.3674 39.6162 28.9807 41.6296 28.9807C42.8962 28.994 44.6562 28.994 46.1629 28.994C46.9229 28.994 47.3229 28.1007 46.7896 27.5674C44.8696 25.634 41.4296 22.154 39.4562 20.1807Z" fill="#0FC766"/>
<path d="M45.7229 30.8206H41.8696C38.7096 30.8206 36.1362 28.2473 36.1362 25.0873V21.234C36.1362 20.5006 35.5362 19.9006 34.8029 19.9006H29.1496C25.0429 19.9006 21.7229 22.5673 21.7229 27.3273V39.1406C21.7229 43.9006 25.0429 46.5673 29.1496 46.5673H39.6296C43.7362 46.5673 47.0562 43.9006 47.0562 39.1406V32.154C47.0562 31.4206 46.4562 30.8206 45.7229 30.8206ZM33.7229 40.9006H28.3896C27.8429 40.9006 27.3896 40.4473 27.3896 39.9006C27.3896 39.354 27.8429 38.9006 28.3896 38.9006H33.7229C34.2696 38.9006 34.7229 39.354 34.7229 39.9006C34.7229 40.4473 34.2696 40.9006 33.7229 40.9006ZM36.3896 35.5673H28.3896C27.8429 35.5673 27.3896 35.114 27.3896 34.5673C27.3896 34.0206 27.8429 33.5673 28.3896 33.5673H36.3896C36.9362 33.5673 37.3896 34.0206 37.3896 34.5673C37.3896 35.114 36.9362 35.5673 36.3896 35.5673Z" fill="#0FC766"/>
</svg>
