<svg width="68" height="68" viewBox="0 0 68 68" fill="none" xmlns="http://www.w3.org/2000/svg">
<circle cx="34" cy="33.595" r="33.595" fill="#EEF5FF"/>
<path d="M43.4097 44.9037C43.1564 44.9037 42.9031 44.8104 42.7031 44.6237C42.3031 44.2371 42.3031 43.6104 42.6897 43.2104C44.9697 40.8904 46.2231 37.8237 46.2231 34.5704C46.2231 27.7704 40.6897 22.2371 33.8897 22.2371C27.0897 22.2371 21.5564 27.7704 21.5564 34.5704C21.5564 37.8104 22.7964 40.8637 25.0631 43.1837C25.4497 43.5837 25.4364 44.2104 25.0497 44.5971C24.6497 44.9837 24.0231 44.9704 23.6364 44.5837C21.0097 41.8904 19.5564 38.3304 19.5564 34.5704C19.5564 26.6637 25.9831 20.2371 33.8897 20.2371C41.7964 20.2371 48.2231 26.6637 48.2231 34.5704C48.2231 38.3437 46.7697 41.9171 44.1164 44.6104C43.9297 44.8104 43.6631 44.9037 43.4097 44.9037Z" fill="#519CFF"/>
<path d="M33.8896 47.237C36.7468 47.237 39.063 44.9209 39.063 42.0637C39.063 39.2066 36.7468 36.8904 33.8896 36.8904C31.0325 36.8904 28.7163 39.2066 28.7163 42.0637C28.7163 44.9209 31.0325 47.237 33.8896 47.237Z" fill="#519CFF"/>
<path d="M39.2231 29.2371C37.7564 29.2371 36.5564 30.4371 36.5564 31.9037V32.9037C36.5564 33.8237 37.3031 34.5704 38.2231 34.5704H39.2231C40.6897 34.5704 41.8897 33.3704 41.8897 31.9037C41.8897 30.4371 40.6897 29.2371 39.2231 29.2371Z" fill="#519CFF"/>
</svg>
