<svg width="68" height="68" viewBox="0 0 68 68" fill="none" xmlns="http://www.w3.org/2000/svg">
<circle cx="34.2906" cy="33.595" r="33.595" fill="#FFF1F0"/>
<path d="M44.1889 37.9199L44.6155 38.7866C44.8289 39.2133 45.3755 39.6133 45.8289 39.6933L46.4022 39.7866C48.1489 40.0799 48.5489 41.3599 47.3089 42.6133L46.7755 43.1466C46.4155 43.5066 46.2289 44.1999 46.3355 44.7066L46.4022 45.0266C46.8822 47.1333 45.7622 47.9466 43.9355 46.8399L43.5489 46.5999C43.0822 46.3199 42.3089 46.3199 41.8422 46.5999L41.4555 46.8399C39.6155 47.9466 38.5089 47.1333 38.9889 45.0266L39.0555 44.7066C39.1622 44.2133 38.9755 43.5066 38.6155 43.1466L38.0822 42.6133C36.8422 41.3466 37.2422 40.0799 38.9889 39.7866L39.5622 39.6933C40.0289 39.6133 40.5622 39.2133 40.7755 38.7866L41.2022 37.9199C42.0289 36.2533 43.3622 36.2533 44.1889 37.9199Z" fill="#FF746A"/>
<path d="M40.2823 20.6667H29.109C24.2556 20.6667 21.3623 23.5601 21.3623 28.4134V39.5867C21.3623 44.4401 24.2556 47.3334 29.109 47.3334H36.149C36.6156 47.3334 36.949 46.8534 36.8956 46.3867C36.8423 45.8801 36.869 45.2801 37.029 44.5867C37.0556 44.4934 37.029 44.3867 36.949 44.3067L36.6556 44.0134C35.5223 42.8667 35.109 41.4801 35.509 40.2134C35.9223 38.9601 37.069 38.0801 38.6556 37.8134L39.0556 37.7467L39.4156 37.0267C40.149 35.5334 41.349 34.6667 42.6956 34.6667C44.0423 34.6667 45.2423 35.5334 45.9756 37.0267L46.1756 37.4401C46.269 37.6401 46.4556 37.7734 46.669 37.8134C46.789 37.8401 46.909 37.8667 47.029 37.8934C47.4956 38.0134 48.029 37.6401 48.029 37.1467V28.4134C48.029 23.5601 45.1356 20.6667 40.2823 20.6667ZM40.3756 29.9467L37.2956 33.9201C36.909 34.4134 36.3623 34.7334 35.7356 34.8001C35.1223 34.8801 34.4956 34.7067 34.0156 34.3201L31.5756 32.4267C31.4823 32.3467 31.3756 32.3467 31.3223 32.3601C31.269 32.3601 31.1756 32.3867 31.0956 32.4934L27.9223 36.6134C27.7223 36.8667 27.429 37.0001 27.1223 37.0001C26.909 37.0001 26.6956 36.9334 26.509 36.7867C26.069 36.4534 25.989 35.8267 26.3223 35.3867L29.4956 31.2667C29.8823 30.7734 30.429 30.4534 31.0556 30.3734C31.6823 30.2934 32.2956 30.4667 32.789 30.8534L35.229 32.7734C35.3223 32.8534 35.4156 32.8401 35.4823 32.8401C35.5356 32.8401 35.629 32.8134 35.709 32.7067L38.789 28.7334C39.1223 28.2934 39.749 28.2134 40.189 28.5601C40.6423 28.8934 40.709 29.5201 40.3756 29.9467Z" fill="#FF746A"/>
</svg>
