<svg width="69" height="68" viewBox="0 0 69 68" fill="none" xmlns="http://www.w3.org/2000/svg">
<circle cx="34.5" cy="33.595" r="33.595" fill="#FFA24C" fill-opacity="0.1"/>
<path d="M44.3025 22.6133C44.4789 22.8905 44.1768 23.2135 43.8564 23.1406C43.2297 22.954 42.5364 22.8606 41.8297 22.8606H37.3461C37.1888 22.8606 37.0408 22.7867 36.9463 22.661L35.363 20.554C35.1752 20.2879 35.3527 19.9006 35.6784 19.9006H39.3497C41.431 19.9006 43.2644 20.9816 44.3025 22.6133Z" fill="#FFA24C"/>
<path d="M45.2431 25.954C44.6697 25.5406 44.0164 25.234 43.3097 25.0606C42.8297 24.9273 42.3364 24.8606 41.8297 24.8606H36.8697C36.0964 24.8606 36.0431 24.794 35.6297 24.2473L33.7631 21.7673C32.8964 20.6073 32.2164 19.9006 30.0431 19.9006H26.9497C23.6964 19.9006 21.0564 22.5406 21.0564 25.794V40.674C21.0564 43.9273 23.6964 46.5673 26.9497 46.5673H41.8297C45.0831 46.5673 47.7231 43.9273 47.7231 40.674V30.754C47.7231 28.7673 46.7497 27.0206 45.2431 25.954ZM37.5764 39.0206H31.1897C30.6697 39.0206 30.2697 38.6073 30.2697 38.0873C30.2697 37.5806 30.6697 37.154 31.1897 37.154H37.5764C38.0964 37.154 38.5097 37.5806 38.5097 38.0873C38.5097 38.6073 38.0964 39.0206 37.5764 39.0206Z" fill="#FFA24C"/>
</svg>
