<svg width="68" height="68" viewBox="0 0 68 68" fill="none" xmlns="http://www.w3.org/2000/svg">
<circle cx="34.1104" cy="33.7027" r="33.595" fill="#FF746A" fill-opacity="0.1"/>
<path d="M39.5867 19.9009H28.4134C23.5601 19.9009 20.6667 22.7942 20.6667 27.6475V38.8209C20.6667 43.6742 23.5601 46.5675 28.4134 46.5675H39.5867C44.4401 46.5675 47.3334 43.6742 47.3334 38.8209V27.6475C47.3334 22.7942 44.4401 19.9009 39.5867 19.9009ZM31.2934 37.1009L28.2934 40.1009C28.0934 40.3009 27.8401 40.3942 27.5867 40.3942C27.3334 40.3942 27.0667 40.3009 26.8801 40.1009L25.8801 39.1009C25.4801 38.7142 25.4801 38.0742 25.8801 37.6875C26.2667 37.3009 26.8934 37.3009 27.2934 37.6875L27.5867 37.9809L29.8801 35.6875C30.2667 35.3009 30.8934 35.3009 31.2934 35.6875C31.6801 36.0742 31.6801 36.7142 31.2934 37.1009ZM31.2934 27.7675L28.2934 30.7675C28.0934 30.9675 27.8401 31.0609 27.5867 31.0609C27.3334 31.0609 27.0667 30.9675 26.8801 30.7675L25.8801 29.7675C25.4801 29.3809 25.4801 28.7409 25.8801 28.3542C26.2667 27.9675 26.8934 27.9675 27.2934 28.3542L27.5867 28.6475L29.8801 26.3542C30.2667 25.9675 30.8934 25.9675 31.2934 26.3542C31.6801 26.7409 31.6801 27.3809 31.2934 27.7675ZM41.4134 39.3942H34.4134C33.8667 39.3942 33.4134 38.9409 33.4134 38.3942C33.4134 37.8475 33.8667 37.3942 34.4134 37.3942H41.4134C41.9734 37.3942 42.4134 37.8475 42.4134 38.3942C42.4134 38.9409 41.9734 39.3942 41.4134 39.3942ZM41.4134 30.0609H34.4134C33.8667 30.0609 33.4134 29.6075 33.4134 29.0609C33.4134 28.5142 33.8667 28.0609 34.4134 28.0609H41.4134C41.9734 28.0609 42.4134 28.5142 42.4134 29.0609C42.4134 29.6075 41.9734 30.0609 41.4134 30.0609Z" fill="#FF746A"/>
</svg>
