<svg width="68" height="68" viewBox="0 0 68 68" fill="none" xmlns="http://www.w3.org/2000/svg">
<circle cx="33.595" cy="33.595" r="33.595" fill="#EEF5FF"/>
<path d="M40.3062 22.5466H27.4528C24.6262 22.5466 22.3062 24.8666 22.3062 27.6933V46.48C22.3062 48.88 24.0262 49.8933 26.1328 48.7333L32.6395 45.12C33.3328 44.7333 34.4528 44.7333 35.1328 45.12L41.6395 48.7333C43.7462 49.9066 45.4662 48.8933 45.4662 46.48V27.6933C45.4528 24.8666 43.1462 22.5466 40.3062 22.5466ZM38.7062 32.04L33.3728 37.3733C33.1728 37.5733 32.9195 37.6666 32.6662 37.6666C32.4128 37.6666 32.1595 37.5733 31.9595 37.3733L29.9595 35.3733C29.5728 34.9866 29.5728 34.3466 29.9595 33.96C30.3462 33.5733 30.9862 33.5733 31.3728 33.96L32.6662 35.2533L37.2928 30.6266C37.6795 30.24 38.3195 30.24 38.7062 30.6266C39.0928 31.0133 39.0928 31.6533 38.7062 32.04Z" fill="#519CFF"/>
</svg>
