<svg width="68" height="68" viewBox="0 0 68 68" fill="none" xmlns="http://www.w3.org/2000/svg">
<circle cx="34" cy="33.595" r="33.595" fill="#CD5798" fill-opacity="0.1"/>
<path d="M44.403 25.7781L36.483 21.2048C35.1896 20.4581 33.5896 20.4581 32.283 21.2048L24.3763 25.7781C23.083 26.5248 22.283 27.9114 22.283 29.4181V38.5381C22.283 40.0314 23.083 41.4181 24.3763 42.1781L32.2963 46.7514C33.5896 47.4981 35.1896 47.4981 36.4963 46.7514L44.4163 42.1781C45.7096 41.4314 46.5096 40.0448 46.5096 38.5381V29.4181C46.4963 27.9114 45.6963 26.5381 44.403 25.7781ZM34.3896 27.7648C36.1096 27.7648 37.4963 29.1514 37.4963 30.8714C37.4963 32.5914 36.1096 33.9781 34.3896 33.9781C32.6696 33.9781 31.283 32.5914 31.283 30.8714C31.283 29.1648 32.6696 27.7648 34.3896 27.7648ZM37.963 40.1914H30.8163C29.7363 40.1914 29.1096 38.9914 29.7096 38.0981C30.6163 36.7514 32.3763 35.8448 34.3896 35.8448C36.403 35.8448 38.163 36.7514 39.0696 38.0981C39.6696 38.9781 39.0296 40.1914 37.963 40.1914Z" fill="#CD5798"/>
</svg>
