<svg width="56" height="56" viewBox="0 0 56 56" fill="none" xmlns="http://www.w3.org/2000/svg">
<path d="M28 4.66602C21.8867 4.66602 16.9167 9.63602 16.9167 15.7493C16.9167 21.746 21.6067 26.5993 27.72 26.8093C27.9067 26.786 28.0933 26.786 28.2333 26.8093C28.28 26.8093 28.3033 26.8093 28.35 26.8093C28.3733 26.8093 28.3733 26.8093 28.3967 26.8093C34.37 26.5993 39.06 21.746 39.0833 15.7493C39.0833 9.63602 34.1133 4.66602 28 4.66602Z" fill="#868998" fill-opacity="0.31"/>
<path d="M39.8533 33.0162C33.3433 28.6762 22.7267 28.6762 16.17 33.0162C13.2067 34.9996 11.5733 37.6829 11.5733 40.5529C11.5733 43.4229 13.2067 46.0829 16.1467 48.0429C19.4133 50.2362 23.7067 51.3329 28 51.3329C32.2933 51.3329 36.5867 50.2362 39.8533 48.0429C42.7933 46.0596 44.4267 43.3996 44.4267 40.5062C44.4033 37.6362 42.7933 34.9762 39.8533 33.0162Z" fill="#868998" fill-opacity="0.31"/>
</svg>
